<svg xmlns="http://www.w3.org/2000/svg" data-name="Layer 1" viewBox="0 0 100 125" x="0px" y="0px"><path d="M60.22,56.17a15.68,15.68,0,0,1-4-4.31,7.07,7.07,0,0,0-12.42,0,15.68,15.68,0,0,1-4,4.31,10.1,10.1,0,0,0-1,.86c-3.23,3.24-3.54,8.16-.7,11,1.28,1.28,3.78,1.12,6.16.52a23.64,23.64,0,0,1,11.52,0c2.38.6,4.88.76,6.16-.52,2.84-2.84,2.53-7.76-.7-11A10.1,10.1,0,0,0,60.22,56.17Z"/><ellipse cx="42.46" cy="38.18" rx="5.13" ry="7.23" transform="translate(-5.69 7.48) rotate(-9.44)"/><ellipse cx="32.4" cy="48.64" rx="4.39" ry="6.18" transform="translate(-19.98 22.72) rotate(-30)"/><ellipse cx="57.54" cy="38.18" rx="7.23" ry="5.13" transform="matrix(0.16, -0.99, 0.99, 0.16, 10.44, 88.68)"/><ellipse cx="67.6" cy="48.64" rx="6.18" ry="4.39" transform="translate(-8.32 82.86) rotate(-60)"/><text x="0" y="115" fill="#000000" font-size="5px" font-weight="bold" font-family="'Helvetica Neue', Helvetica, Arial-Unicode, Arial, Sans-serif">Created by hibernut</text><text x="0" y="120" fill="#000000" font-size="5px" font-weight="bold" font-family="'Helvetica Neue', Helvetica, Arial-Unicode, Arial, Sans-serif">from the Noun Project</text></svg>